<?xml version="1.0" encoding="UTF-8"?>
<!DOCTYPE svg PUBLIC "-//W3C//DTD SVG 1.1//EN" "http://www.w3.org/Graphics/SVG/1.1/DTD/svg11.dtd">
<!-- Creator: CorelDRAW 2017 -->
<svg xmlns="http://www.w3.org/2000/svg" xml:space="preserve" width="4.42807cm" height="2.95487cm" version="1.1" style="shape-rendering:geometricPrecision; text-rendering:geometricPrecision; image-rendering:optimizeQuality; fill-rule:evenodd; clip-rule:evenodd"
viewBox="0 0 3.9472 2.63077"
 xmlns:xlink="http://www.w3.org/1999/xlink">
 <defs>
  <style type="text/css">
   <![CDATA[
    .fil0 {fill:#FEFEFE}
    .fil4 {fill:#373435;fill-rule:nonzero}
    .fil2 {fill:#E970AA;fill-rule:nonzero}
    .fil1 {fill:#88D2D9;fill-rule:nonzero}
    .fil3 {fill:#88D2D9;fill-rule:nonzero}
   ]]>
  </style>
 </defs>
 <g id="Camada_x0020_1">
  <metadata id="CorelCorpID_0Corel-Layer"/>
  <g id="_2572014573760">
   <path class="fil0" d="M1.54041 0.77055l0 -0.21713 0.75066 0 0 0.0095 0.26489 0 0 1.29972 -0.29435 0 0 -1.01299 -0.18828 0 0 1.13604 -0.31518 0 0 -1.13604 -0.20487 0 0.18239 1.11996 -0.34866 0 -0.04295 -0.2983 -0.18028 0 -0.04354 0.2983 -0.25401 0 0.00841 0.01987 -0.35239 0 -0.01219 -0.03652c-0.0229,-0.06861 -0.02358,-0.12356 -0.02358,-0.19604l0 -0.26659c0,-0.02799 -0.00126,-0.09084 -0.02536,-0.11117 -0.01543,-0.01302 -0.04592,-0.01449 -0.06491,-0.01449l-0.02568 0 0 0.62482 -0.33601 0 0 -1.5648 0.39293 0c0.26061,0 0.39293,0.12765 0.39293,0.38876l0 0.08957c0,0.11037 -0.02484,0.21695 -0.10165,0.28634 0.08599,0.07208 0.10373,0.19673 0.10373,0.31347l0 0.25617c0,0.0019 0,0.0038 0,0.00571l0.23226 -1.42618 0.41533 0 0.07036 0.43201zm-1.16988 0.27896l0.02984 0c0.07055,0 0.08401,-0.03241 0.08401,-0.10068l0 -0.11246c0,-0.0226 -0.00188,-0.07021 -0.02152,-0.08635 -0.01059,-0.00869 -0.02863,-0.01018 -0.04166,-0.01018l-0.05067 0 0 0.30966zm0.83675 0.30806l0.09263 0 -0.04679 -0.33044 -0.04583 0.33044zm1.87432 -0.27056l0.09466 -0.67747 0.41206 0 0 1.49852 -0.31365 0 0 -0.42122 -0.06359 0.42122 -0.27486 0 -0.06359 -0.42122 0 0.42122 -0.29774 0 0 -1.49852 0.41206 0 0.09465 0.67747z"/>
  </g>
  <g id="_2572014575104">
   <path class="fil1" d="M0.08797 1.93604l0.22912 0 0 -0.62482 0.07913 0c0.10414,0 0.14372,0.04374 0.14372,0.17911l0 0.26659c0,0.11871 0.00831,0.14162 0.02083,0.17911l0.23324 0c-0.0229,-0.05414 -0.02499,-0.10622 -0.02499,-0.17704l0 -0.25617c0,-0.16452 -0.03748,-0.27283 -0.15202,-0.30825l0 -0.00416c0.10203,-0.04165 0.14995,-0.13746 0.14995,-0.28741l0 -0.08957c0,-0.22494 -0.10206,-0.33531 -0.33949,-0.33531l-0.33949 0 0 1.4579zm0.22912 -0.83308l0 -0.41656 0.10412 0c0.08123,0 0.11663,0.04583 0.11663,0.14998l0 0.11246c0,0.11663 -0.05208,0.15413 -0.13746,0.15413l-0.08329 0zm0.53487 0.81321l0.22209 0 0.04354 -0.2983 0.27218 0 0 -0.00435 0.04357 0.30265 0.2395 0 -0.24822 -1.52419 -0.32443 0 -0.24822 1.52419zm0.29396 -0.50515l0.1045 -0.75338 0.00437 0 0.10667 0.75338 -0.21555 0z"/>
   <path class="fil2" d="M1.8116 1.93225l0.20828 0 0 -1.13604 0.21774 0 0 -0.18934 -0.64377 0 0 0.18934 0.21775 0 0 1.13604zm0.50346 -0.12306l0.18745 0 0 -1.19282 -0.18745 0 0 1.19282zm0.31329 0.04543l0.19085 0 0 -1.05367 0.00396 0 0.15905 1.05367 0.18289 0 0.15905 -1.05367 0.00396 0 0 1.05367 0.20676 0 0 -1.39162 -0.31211 0 -0.13916 0.996 -0.00399 0 -0.13915 -0.996 -0.31211 0 0 1.39162z"/>
  </g>
  <g id="_2572014575616">
   <path class="fil0" d="M2.56073 2.41008c-0.03213,0.09479 -0.11459,0.15614 -0.23971,0.17502l-0.30267 0.04567 -0.16841 -1.11654 0.29258 -0.04411c0.127,-0.01915 0.2199,0.01106 0.2759,0.09035l-0.01068 -0.07078 0.2622 -0.03958 0.12428 0.82397c0.00114,0.00758 0.00647,0.03512 0.01472,0.03931 0.00438,0.00223 0.01418,0.00122 0.01873,0.00053 0.00454,-0.00069 0.01418,-0.00262 0.01772,-0.00603 0.00665,-0.00643 0.00362,-0.03431 0.00247,-0.04189l-0.12429 -0.82399 0.25654 -0.03866 0.12257 0.81257c0.02754,0.18262 -0.05211,0.318 -0.24045,0.3464 -0.14738,0.02223 -0.25041,-0.03765 -0.30149,-0.15223zm-0.07812 -0.4241l-0.01135 -0.07525c-0.00563,0.01632 -0.01311,0.03186 -0.02275,0.04636 0.01258,0.00844 0.02391,0.01814 0.0341,0.02889zm0.95559 -0.28353l-0.00494 -0.45274 0.3375 -0.05091 0.17643 1.16976 -0.2638 0.03977 -0.0263 -0.17436 -0.00003 0.17836 -0.23076 0.0348 -0.05266 -0.17052 0.02632 0.1745 -0.25163 0.03792 -0.17645 -1.16974 0.33747 -0.0509 0.12883 0.43405zm-1.26164 0.18342l0.00923 -0.00139c0.03891,-0.00587 0.04012,-0.02209 0.03433,-0.06039l-0.00851 -0.05632c-0.00135,-0.00893 -0.00738,-0.04096 -0.01636,-0.04631 -0.00409,-0.00244 -0.01505,-0.00126 -0.01933,-0.00061l-0.02371 0.00358 0.02435 0.16144zm0.0686 0.45487l0.03812 -0.00575c0.00476,-0.00071 0.01711,-0.00307 0.02076,-0.00676 0.00624,-0.00632 0.00278,-0.0371 0.00167,-0.04446l-0.01328 -0.08806c-0.00193,-0.01281 -0.00908,-0.05343 -0.02189,-0.06115 -0.00844,-0.0051 -0.02933,-0.00263 -0.03833,-0.00126l-0.01791 0.0027 0.03088 0.20476z"/>
  </g>
  <path class="fil3" d="M2.06324 2.56995l0.24982 -0.0377c0.15884,-0.02395 0.22851,-0.12012 0.20498,-0.27607l-0.01307 -0.08665c-0.01611,-0.10687 -0.06064,-0.17692 -0.15019,-0.19298l-0.00043 -0.00287c0.0664,-0.03958 0.08835,-0.10932 0.07268,-0.21332l-0.00611 -0.04042c-0.02353,-0.15597 -0.10582,-0.22182 -0.27043,-0.19698l-0.23972 0.03614 0.15246 1.01084zm0.06845 -0.62325l-0.04029 -0.26713 0.07656 -0.01156c0.0563,-0.00848 0.08562,0.01959 0.09652,0.0918l0.00851 0.05632c0.01218,0.08086 -0.02,0.11229 -0.07921,0.12122l-0.06208 0.00936zm0.0686 0.45488l-0.04681 -0.31046 0.07075 -0.01068c0.07221,-0.01089 0.10689,0.01342 0.12105,0.1073l0.01328 0.08806c0.01132,0.07509 -0.01385,0.10399 -0.06729,0.11205l-0.09098 0.01374zm0.65397 0.10789c0.15363,-0.02316 0.2196,-0.12623 0.19558,-0.28557l-0.1146 -0.75972 -0.15084 0.02273 0.11632 0.77113c0.01073,0.0711 -0.01529,0.10125 -0.06506,0.10875 -0.0498,0.00753 -0.08355,-0.01359 -0.09427,-0.08472l-0.1163 -0.77112 -0.1565 0.02362 0.1146 0.75972c0.02403,0.15932 0.11743,0.23835 0.27108,0.21518zm0.33898 -0.08123l0.14592 -0.02199 -0.12153 -0.80566 0.00306 -0.00045 0.24314 0.78731 0.13982 -0.02109 0.0001 -0.824 0.00304 -0.00045 0.12151 0.80564 0.1581 -0.02384 -0.16049 -1.06406 -0.23866 0.036 0.00847 0.77759 -0.00306 0.00048 -0.22128 -0.74551 -0.23864 0.036 0.16051 1.06405z"/>
  <g id="_2572014576288">
   <path class="fil0" d="M0.49953 0.16827l0.32959 0 0.01962 -0.08936 0.17463 -0.02356 -0.02439 0.11292 0.01025 0 0.02511 -0.11759 0.17448 -0.02362 -0.06627 0.31208c0.00089,-0.003 0.00181,-0.00599 0.00276,-0.00897 0.00649,-0.02039 0.01518,-0.03999 0.02553,-0.05871 0.01087,-0.01966 0.02418,-0.03779 0.04,-0.05374 0.01661,-0.01675 0.03604,-0.03006 0.0575,-0.03985 0.024,-0.01095 0.04998,-0.01554 0.07626,-0.01554 0.01669,0 0.03406,0.00184 0.04974,0.00784 0.01059,0.00404 0.02051,0.00944 0.0291,0.01669l0.00379 -0.01859 0.02249 0 0.0195 -0.08936 0.17682 -0.02386 -0.01318 0.05127c-0.00103,0.00402 -0.00198,0.00805 -0.00293,0.01294 -0.00113,0.00518 -0.00221,0.01038 -0.00324,0.01558l-0.00017 0.00089 -0.00022 0.00089c-0.00264,0.01048 -0.00494,0.02107 -0.00717,0.03164l0.03991 0 -0.01924 0.09818 -0.0409 0 -0.03716 0.17417c-0.00007,0.0003 -0.00014,0.00061 -0.0002,0.00091l0.06269 -0.02516 -0.02578 0.07396c-0.00517,0.01484 -0.01169,0.02997 -0.02056,0.04299 -0.00722,0.01058 -0.01581,0.02066 -0.02609,0.02839 -0.00959,0.00721 -0.02027,0.01249 -0.03197,0.01521 -0.00865,0.00201 -0.01747,0.00306 -0.02635,0.00306 -0.01556,0 -0.03116,-0.00243 -0.04543,-0.00883 -0.01339,-0.006 -0.02508,-0.0148 -0.03421,-0.02631 -0.00345,-0.00434 -0.00645,-0.00893 -0.00905,-0.01375 -0.00119,0.00094 -0.00239,0.00186 -0.00359,0.00278 -0.01816,0.01383 -0.03808,0.02487 -0.0594,0.03307 -0.02362,0.00909 -0.04855,0.01303 -0.0738,0.01303 -0.01821,0 -0.03648,-0.00224 -0.05389,-0.00766 -0.01759,-0.00548 -0.03344,-0.01436 -0.04692,-0.02694 -0.00128,-0.00119 -0.00253,-0.00241 -0.00374,-0.00366 -0.00502,0.00423 -0.01028,0.00815 -0.0158,0.01168 -0.01031,0.00658 -0.02117,0.0123 -0.03267,0.01654 -0.01005,0.00371 -0.02049,0.00651 -0.0311,0.00801 -0.00833,0.00118 -0.01679,0.00203 -0.02521,0.00203 -0.0136,0 -0.02708,-0.00209 -0.03994,-0.00656 -0.01391,-0.00484 -0.02626,-0.01264 -0.0366,-0.02315 -0.00134,-0.00136 -0.00263,-0.00276 -0.00388,-0.0042 -0.00336,0.00259 -0.00683,0.00504 -0.0104,0.00732 -0.01032,0.00659 -0.02118,0.0123 -0.03267,0.01654 -0.01005,0.00371 -0.02049,0.00651 -0.0311,0.00801 -0.00833,0.00118 -0.01678,0.00203 -0.0252,0.00203 -0.0136,0 -0.02707,-0.00209 -0.03994,-0.00656 -0.01391,-0.00484 -0.02626,-0.01264 -0.0366,-0.02315 -0.00094,-0.00095 -0.00184,-0.00192 -0.00274,-0.00291 -0.00241,0.0019 -0.00489,0.00372 -0.00743,0.00545 -0.00982,0.0067 -0.02033,0.01252 -0.03141,0.01687 -0.00981,0.00385 -0.02006,0.00671 -0.03048,0.00824 -0.00825,0.00122 -0.01658,0.00206 -0.02492,0.00206 -0.02623,0 -0.05088,-0.0074 -0.0703,-0.0255 -0.00236,-0.00221 -0.00457,-0.00451 -0.00664,-0.00689 -0.00771,0.00648 -0.01597,0.01232 -0.02482,0.01706 -0.01115,0.00599 -0.02303,0.01039 -0.0355,0.01264 -0.00956,0.00173 -0.01929,0.0027 -0.02901,0.0027 -0.0136,0 -0.02708,-0.00209 -0.03994,-0.00656 -0.01391,-0.00484 -0.02626,-0.01264 -0.0366,-0.02315 -0.01046,-0.01064 -0.01813,-0.02361 -0.02328,-0.03756 -0.00575,-0.01556 -0.00782,-0.0324 -0.00782,-0.04891 0,-0.00297 0.00008,-0.00593 0.00024,-0.00891 -0.01317,0.02073 -0.02863,0.03984 -0.04643,0.05687 -0.02145,0.02053 -0.04595,0.03693 -0.07303,0.04914 -0.02972,0.01339 -0.06171,0.01908 -0.09418,0.01908 -0.0203,0 -0.04046,-0.0026 -0.05979,-0.00895 -0.01982,-0.0065 -0.03747,-0.01723 -0.05223,-0.03199 -0.01556,-0.01555 -0.02629,-0.03488 -0.03341,-0.05558 -0.00812,-0.02364 -0.01089,-0.04928 -0.01089,-0.07417 0,-0.02219 0.00228,-0.04456 0.00555,-0.06649 0.00169,-0.01138 0.00376,-0.02271 0.00618,-0.03396 -0.01454,-0.00281 -0.02848,-0.00807 -0.04075,-0.01687 -0.02382,-0.01709 -0.03268,-0.04421 -0.03268,-0.07259 0,-0.02118 0.00465,-0.04165 0.01334,-0.06097 0.00865,-0.01922 0.02039,-0.03679 0.03447,-0.05247 0.01481,-0.01652 0.03173,-0.03088 0.05002,-0.04341 0.01934,-0.01326 0.04014,-0.02426 0.06179,-0.03324 0.02277,-0.00944 0.04643,-0.01645 0.07055,-0.02149 0.0252,-0.00526 0.05085,-0.00782 0.07659,-0.00782 0.0299,0 0.06082,0.0039 0.08855,0.01557 0.02445,0.01029 0.04597,0.02535 0.06286,0.04594 0.01638,0.01998 0.02743,0.04306 0.03403,0.06798 0.00338,0.01276 0.00578,0.02572 0.00734,0.03879zm-0.26069 0.28553c0.00341,-0.00094 0.00693,-0.00333 0.00936,-0.00522 0.00986,-0.00768 0.01829,-0.01786 0.02539,-0.02808 0.01017,-0.01464 0.01864,-0.03069 0.0259,-0.04695 0.00861,-0.01928 0.01576,-0.03918 0.02164,-0.05945 0.00625,-0.02155 0.01104,-0.0435 0.01462,-0.06564 0.00343,-0.02114 0.0054,-0.04254 0.0054,-0.06398 0,-0.01521 -0.0007,-0.03082 -0.00306,-0.04587 -0.00053,-0.00343 -0.00126,-0.00703 -0.00229,-0.01056l-0.00252 0.00151c-0.00763,0.00457 -0.01461,0.0126 -0.01987,0.01963 -0.00942,0.01256 -0.01747,0.02631 -0.02451,0.04032 -0.0086,0.01708 -0.01595,0.03481 -0.02236,0.05282 -0.00693,0.01945 -0.01302,0.0392 -0.01812,0.0592 -0.00494,0.01938 -0.00884,0.03902 -0.01171,0.05881 -0.00247,0.01701 -0.00412,0.03433 -0.00412,0.05153 0,0.00862 0.00057,0.01728 0.00192,0.02581 0.00083,0.00518 0.00206,0.01097 0.0042,0.01579 0.00004,0.00009 0.00009,0.0002 0.00014,0.00032zm0.56563 -0.18735l-0.03481 0.16474c0.00049,-0.00093 0.00096,-0.00187 0.00141,-0.00281 0.00261,-0.00551 0.00477,-0.01125 0.00646,-0.01711l0.03095 -0.14482 -0.004 0zm0.18379 0l-0.00988 0 -0.03661 0.17155c0.00022,-0.0002 0.00044,-0.00042 0.00065,-0.00063 0.0033,-0.0033 0.00602,-0.00724 0.00832,-0.0113 0.00276,-0.00488 0.00497,-0.01009 0.00673,-0.01543l0.0308 -0.14419zm0.14186 0.13131l-0.00854 0.04024c0.00022,-0.0002 0.00044,-0.00042 0.00065,-0.00063 0.00189,-0.00189 0.00359,-0.00399 0.00509,-0.00613 0.00026,-0.01115 0.00134,-0.02239 0.00281,-0.03348zm0.27521 -0.01982c-0.00324,0.00329 -0.00663,0.00647 -0.01015,0.00953 -0.01768,0.01541 -0.03769,0.02752 -0.05937,0.0364 -0.01225,0.00502 -0.02482,0.0089 -0.03764,0.01163 0.00012,0.00485 0.0005,0.01002 0.00153,0.01385 0.00019,0.00062 0.00045,0.00151 0.00026,0.00179 0.00353,0.00083 0.00756,0.00102 0.01111,0.00102 0.00849,0 0.01725,-0.00088 0.02535,-0.00352 0.00779,-0.00253 0.01512,-0.00601 0.02199,-0.01048 0.00763,-0.00494 0.01472,-0.01074 0.02118,-0.01713 0.00726,-0.00716 0.01434,-0.01449 0.02123,-0.022l0.0045 -0.0211z"/>
  </g>
  <path class="fil4" d="M0.31495 0.099c-0.01032,0.00618 -0.0203,0.01581 -0.03007,0.02883 -0.00975,0.01302 -0.01906,0.02828 -0.02783,0.04567 -0.00874,0.01739 -0.01681,0.03633 -0.0241,0.05687 -0.00731,0.02043 -0.01368,0.04128 -0.01908,0.06237 -0.00538,0.02121 -0.00953,0.04206 -0.01244,0.06249 -0.00304,0.02054 -0.0045,0.03938 -0.0045,0.05666 0,0.01144 0.00079,0.02188 0.00237,0.03141 0.00146,0.00953 0.00379,0.01772 0.00683,0.02468 0.00315,0.00695 0.00706,0.01223 0.01202,0.01614 0.00492,0.00382 0.01087,0.00574 0.01793,0.00574 0.01135,0 0.02267,-0.00437 0.03399,-0.01314 0.01134,-0.00886 0.02221,-0.02073 0.03277,-0.03587 0.01041,-0.01505 0.02018,-0.03266 0.02916,-0.05274 0.00895,-0.02009 0.01681,-0.0414 0.02333,-0.06406 0.00662,-0.02264 0.01178,-0.04598 0.01557,-0.06987 0.00395,-0.02391 0.00585,-0.04712 0.00585,-0.06968 0,-0.01951 -0.00124,-0.03668 -0.00348,-0.05137 -0.00237,-0.01481 -0.00662,-0.02716 -0.01301,-0.03702 -0.00629,-0.00987 -0.01514,-0.01727 -0.02625,-0.02222 -0.01121,-0.00492 -0.02568,-0.0074 -0.0434,-0.0074 -0.02558,0 -0.05016,0.00404 -0.07359,0.01202 -0.02346,0.00807 -0.04409,0.01951 -0.06194,0.03454 -0.01794,0.01505 -0.03208,0.0332 -0.04262,0.05453 -0.01044,0.02143 -0.01571,0.04543 -0.01571,0.07214 0,0.00662 0.00033,0.01189 0.00112,0.01594 0.00078,0.00412 0.00158,0.0074 0.00224,0.00986 0.00078,0.00257 0.00158,0.00459 0.00236,0.00616 0.00079,0.00145 0.00112,0.00291 0.00112,0.00428 -0.02142,0 -0.03814,-0.00428 -0.05015,-0.0129 -0.0119,-0.00853 -0.01783,-0.02313 -0.01783,-0.04364 0,-0.01584 0.00335,-0.03131 0.0102,-0.04634 0.00673,-0.01514 0.01627,-0.02962 0.0285,-0.0433 0.01233,-0.01369 0.0268,-0.02625 0.04364,-0.03781 0.01672,-0.01144 0.0352,-0.02131 0.05529,-0.02971 0.02021,-0.00831 0.04151,-0.01481 0.06418,-0.01952 0.02255,-0.00473 0.04564,-0.00707 0.06931,-0.00707 0.0295,0 0.05451,0.00426 0.07472,0.01278 0.0203,0.00853 0.03668,0.02042 0.04913,0.03569 0.01257,0.01523 0.02155,0.03341 0.02713,0.05451 0.00561,0.02121 0.00844,0.04421 0.00844,0.06922 0,0.02176 -0.00203,0.0451 -0.00619,0.07022 -0.00404,0.02501 -0.01032,0.05005 -0.01906,0.07493 -0.00864,0.02479 -0.01951,0.0488 -0.03275,0.07191 -0.01335,0.0231 -0.02916,0.04352 -0.04758,0.06113 -0.0184,0.01763 -0.03936,0.03174 -0.06303,0.04239 -0.02367,0.01068 -0.05026,0.01594 -0.07954,0.01594 -0.01784,0 -0.03398,-0.00234 -0.04867,-0.00717 -0.01469,-0.00482 -0.02737,-0.01269 -0.03815,-0.02333 -0.01065,-0.01078 -0.01905,-0.0248 -0.02491,-0.04197 -0.00595,-0.01715 -0.00896,-0.03802 -0.00896,-0.06258 0,-0.01817 0.00179,-0.0386 0.00516,-0.06124 0.00338,-0.02266 0.00853,-0.04579 0.01524,-0.06912 0.00686,-0.02331 0.01527,-0.0461 0.02549,-0.06841 0.0102,-0.02245 0.02198,-0.04218 0.03554,-0.05957 0.01347,-0.01729 0.02861,-0.0312 0.04543,-0.04173 0.01696,-0.01056 0.03545,-0.01572 0.05553,-0.01572 0.00574,0 0.01144,0.00034 0.01717,0.00091 0.00571,0.00067 0.01165,0.00224 0.01806,0.00459zm0.52543 0.32083c-0.00628,0.01817 -0.01323,0.03398 -0.02063,0.04734 -0.00753,0.01335 -0.01527,0.02458 -0.02322,0.03378 -0.00797,0.00919 -0.01614,0.01672 -0.02445,0.02242 -0.00829,0.00562 -0.01648,0.00999 -0.02435,0.01314 -0.00786,0.00301 -0.01547,0.00516 -0.02266,0.00616 -0.00729,0.00112 -0.01378,0.00167 -0.01973,0.00167 -0.0193,0 -0.03456,-0.00526 -0.046,-0.01594 -0.01145,-0.01065 -0.01828,-0.02658 -0.02076,-0.04777 -0.00853,0.01379 -0.01716,0.0248 -0.02592,0.03321 -0.00874,0.00828 -0.01739,0.01481 -0.02591,0.01939 -0.00862,0.00461 -0.01693,0.00752 -0.025,0.00898 -0.00808,0.00146 -0.0157,0.00213 -0.02267,0.00213 -0.01008,0 -0.01952,-0.00156 -0.02826,-0.00459 -0.00874,-0.00304 -0.01638,-0.00786 -0.02288,-0.01448 -0.0064,-0.00649 -0.01155,-0.01493 -0.01526,-0.02492 -0.00371,-0.01008 -0.00561,-0.02231 -0.00561,-0.03657 0,-0.00604 0.00045,-0.01277 0.00136,-0.02019 0.00088,-0.00728 0.00212,-0.01526 0.00391,-0.02378l0.04564 -0.21593 0.09705 0 -0.04834 0.22873c-0.00136,0.00707 -0.00203,0.01335 -0.00203,0.01906 0,0.00762 0.00145,0.01414 0.00428,0.01951 0.00291,0.0054 0.0082,0.00808 0.01581,0.00808 0.00662,0 0.01256,-0.00146 0.01806,-0.00437 0.0055,-0.00304 0.01044,-0.00707 0.01493,-0.01233 0.00449,-0.00527 0.00853,-0.01155 0.01187,-0.01897 0.00337,-0.00728 0.0064,-0.01526 0.00899,-0.02378l0.04576 -0.21593 0.09693 0 -0.04834 0.22873c-0.00112,0.00371 -0.00179,0.0074 -0.00224,0.01098 -0.00045,0.00359 -0.00067,0.00717 -0.00067,0.01065 0,0.00943 0.00224,0.01594 0.00673,0.01963 0.00449,0.00359 0.01144,0.00538 0.02085,0.00538 0.00662,0 0.01269,-0.00146 0.0183,-0.00437 0.00549,-0.00304 0.01065,-0.00707 0.01523,-0.01233 0.00461,-0.00527 0.00865,-0.01155 0.01214,-0.01897 0.00346,-0.00728 0.00649,-0.01526 0.00885,-0.02378l0.02826 0zm0.17972 0c-0.00628,0.01817 -0.01335,0.03398 -0.02109,0.04734 -0.00783,0.01335 -0.01593,0.02458 -0.02434,0.03378 -0.00841,0.00919 -0.01715,0.01672 -0.02601,0.02242 -0.00886,0.00562 -0.01739,0.00999 -0.02582,0.01314 -0.00828,0.00301 -0.01627,0.00516 -0.02377,0.00616 -0.00752,0.00112 -0.01425,0.00167 -0.0202,0.00167 -0.01008,0 -0.01952,-0.00156 -0.02826,-0.00459 -0.00874,-0.00304 -0.01638,-0.00786 -0.02288,-0.01448 -0.0064,-0.00649 -0.01156,-0.01493 -0.01526,-0.02492 -0.00371,-0.01008 -0.00561,-0.02231 -0.00561,-0.03657 0,-0.00604 0.00045,-0.01277 0.00136,-0.02019 0.00088,-0.00728 0.00212,-0.01526 0.00391,-0.02378l0.04039 -0.18901 -0.02233 0 0.00562 -0.02692 0.02197 0 0.02043 -0.09301 0.09963 -0.01344 -0.023 0.10645 0.04039 0 -0.00528 0.02692 -0.04039 0 -0.04306 0.20181c-0.00112,0.00371 -0.00179,0.0074 -0.00213,0.01098 -0.00036,0.00359 -0.00057,0.00717 -0.00057,0.01065 0,0.00943 0.00224,0.01594 0.00661,0.01963 0.00437,0.00359 0.01132,0.00538 0.02076,0.00538 0.0065,0 0.0129,-0.00146 0.01919,-0.00437 0.00628,-0.00304 0.01201,-0.00707 0.01726,-0.01233 0.00528,-0.00527 0.00999,-0.01155 0.01415,-0.01897 0.00415,-0.00728 0.00752,-0.01526 0.01019,-0.02378l0.02817 0zm0.17981 0c-0.00628,0.01817 -0.01335,0.03398 -0.02109,0.04734 -0.00783,0.01335 -0.01593,0.02458 -0.02434,0.03378 -0.00841,0.00919 -0.01715,0.01672 -0.02601,0.02242 -0.00886,0.00562 -0.01739,0.00999 -0.02582,0.01314 -0.00829,0.00301 -0.01627,0.00516 -0.02377,0.00616 -0.00753,0.00112 -0.01426,0.00167 -0.02021,0.00167 -0.01008,0 -0.01952,-0.00156 -0.02826,-0.00459 -0.00874,-0.00304 -0.01638,-0.00786 -0.02288,-0.01448 -0.0064,-0.00649 -0.01155,-0.01493 -0.01526,-0.02492 -0.00371,-0.01008 -0.00561,-0.02231 -0.00561,-0.03657 0,-0.00604 0.00045,-0.01277 0.00136,-0.02019 0.00088,-0.00728 0.00212,-0.01526 0.00391,-0.02378l0.07202 -0.3372 0.0995 -0.01347 -0.07717 0.36347c-0.00112,0.00371 -0.00179,0.0074 -0.00213,0.01098 -0.00036,0.00359 -0.00057,0.00717 -0.00057,0.01065 0,0.00943 0.00224,0.01594 0.00662,0.01963 0.00436,0.00359 0.01131,0.00538 0.02076,0.00538 0.00649,0 0.0129,-0.00146 0.01918,-0.00437 0.00628,-0.00304 0.01201,-0.00707 0.01726,-0.01233 0.00528,-0.00527 0.00999,-0.01155 0.01415,-0.01897 0.00415,-0.00728 0.00752,-0.01526 0.0102,-0.02378l0.02816 0zm0.25318 0c-0.00943,0.01571 -0.0202,0.03107 -0.03241,0.046 -0.01213,0.0149 -0.02582,0.02816 -0.04107,0.03969 -0.01526,0.01169 -0.0321,0.021 -0.05061,0.02817 -0.01849,0.00706 -0.03879,0.01065 -0.06101,0.01065 -0.01593,0 -0.0304,-0.00201 -0.0433,-0.00605 -0.01301,-0.00404 -0.02401,-0.01032 -0.0332,-0.01897 -0.00922,-0.00853 -0.01627,-0.01951 -0.02121,-0.03299 -0.00494,-0.01344 -0.0074,-0.02971 -0.0074,-0.0488 0,-0.0129 0.00134,-0.0278 0.00392,-0.04464 0.00257,-0.01693 0.00685,-0.03421 0.01246,-0.05193 0.00571,-0.01784 0.01335,-0.03523 0.02277,-0.05229 0.00943,-0.01705 0.02076,-0.03241 0.03411,-0.04589 0.01334,-0.01344 0.02904,-0.02434 0.047,-0.03253 0.01794,-0.00819 0.03848,-0.01232 0.06147,-0.01232 0.01514,0 0.02749,0.00179 0.03702,0.00549 0.00953,0.00359 0.01705,0.00829 0.02266,0.01424 0.00561,0.00594 0.00942,0.0128 0.01145,0.02053 0.00212,0.00774 0.00313,0.01582 0.00313,0.02411 0,0.01954 -0.00425,0.03769 -0.01278,0.05441 -0.00853,0.01684 -0.01996,0.03141 -0.03432,0.04388 -0.01435,0.01256 -0.03086,0.02264 -0.04947,0.03029 -0.01863,0.00762 -0.03803,0.01211 -0.05823,0.01344 -0.00045,0.00504 -0.00078,0.00977 -0.00112,0.01436 -0.00033,0.00449 -0.00045,0.00864 -0.00045,0.01256 0,0.01145 0.00102,0.02076 0.00304,0.02816 0.00215,0.00729 0.00516,0.01314 0.00919,0.01727 0.00416,0.00416 0.00919,0.00707 0.01514,0.00865 0.00607,0.00167 0.01314,0.00246 0.02121,0.00246 0.01335,0 0.02546,-0.00167 0.03635,-0.00526 0.01087,-0.00348 0.02097,-0.00831 0.03039,-0.01448 0.00943,-0.00607 0.01841,-0.01335 0.02682,-0.02166 0.00841,-0.00828 0.01693,-0.01715 0.02546,-0.02658l0.023 0zm-0.18375 -0.04768c0.01268,-0.00088 0.025,-0.00449 0.03678,-0.01087 0.01189,-0.00628 0.02233,-0.0146 0.03131,-0.02479 0.00896,-0.01023 0.01615,-0.02176 0.02142,-0.03478 0.00538,-0.01314 0.00808,-0.02659 0.00808,-0.04061 0,-0.00831 -0.00112,-0.01505 -0.00359,-0.02009 -0.00236,-0.00504 -0.00685,-0.00752 -0.01313,-0.00752 -0.00853,0 -0.01693,0.00404 -0.02513,0.01222 -0.00829,0.00832 -0.01594,0.01897 -0.02321,0.03208 -0.00719,0.01314 -0.01357,0.02807 -0.01918,0.04455 -0.00562,0.0166 -0.01011,0.0332 -0.01335,0.0498zm0.20382 -0.14134l-0.02231 0 0.0055 -0.02692 0.02209 0 0.0203 -0.09301 0.09963 -0.01344c-0.00112,0.00436 -0.00224,0.00908 -0.00324,0.01424 -0.00112,0.00516 -0.00224,0.01053 -0.00338,0.01627 -0.00236,0.00941 -0.00494,0.02063 -0.00764,0.03377 -0.00279,0.013 -0.0057,0.02702 -0.00874,0.04218l0.04039 0 -0.00527 0.02692 -0.0404 0 -0.04306 0.20181c-0.00101,0.00437 -0.00191,0.00862 -0.00249,0.01266 -0.00055,0.00404 -0.00077,0.00774 -0.00077,0.01101 0,0.00695 0.00156,0.01278 0.00471,0.01739 0.00324,0.00459 0.00941,0.00695 0.0186,0.00695 0.00237,0 0.00528,-0.00012 0.00853,-0.00023 0.00327,-0.0001 0.0064,-0.00067 0.00919,-0.00179 -0.00504,0.01447 -0.01054,0.02603 -0.01636,0.03465 -0.00594,0.00865 -0.01202,0.01538 -0.01806,0.01997 -0.00618,0.00461 -0.01235,0.00752 -0.01863,0.00898 -0.00629,0.00146 -0.01236,0.00213 -0.01828,0.00213 -0.01201,0 -0.02233,-0.00189 -0.03086,-0.00571 -0.00853,-0.00382 -0.01547,-0.0092 -0.02087,-0.01594 -0.00538,-0.00685 -0.00929,-0.01493 -0.01178,-0.02422 -0.00258,-0.00931 -0.0038,-0.01929 -0.0038,-0.03006 0,-0.01156 0.00135,-0.02355 0.00392,-0.03578l0.04307 -0.20181z"/>
 </g>
</svg>
